<mxfile host="65bd71144e">
    <diagram id="j0DK9e-k0z1Xt0PVkdyF" name="Page-1">
        <mxGraphModel dx="1034" dy="135" grid="1" gridSize="10" guides="1" tooltips="1" connect="1" arrows="1" fold="1" page="1" pageScale="1" pageWidth="850" pageHeight="1100" background="#ffffff" math="0" shadow="0">
            <root>
                <mxCell id="0"/>
                <mxCell id="1" parent="0"/>
                <mxCell id="2" value="&lt;b&gt;&lt;font style=&quot;font-size: 22px;&quot;&gt;POST&lt;/font&gt;&lt;/b&gt;" style="rounded=0;whiteSpace=wrap;html=1;fillColor=#f5f5f5;fontColor=#333333;strokeColor=#050505;strokeWidth=4;" parent="1" vertex="1">
                    <mxGeometry x="375" y="438" width="120" height="60" as="geometry"/>
                </mxCell>
                <mxCell id="6" value="" style="edgeStyle=none;html=1;strokeColor=#050505;strokeWidth=2;fontSize=11;shape=link;" parent="1" source="3" target="2" edge="1">
                    <mxGeometry relative="1" as="geometry"/>
                </mxCell>
                <mxCell id="3" value="&lt;font style=&quot;font-size: 11px;&quot;&gt;CREATE&lt;/font&gt;" style="rhombus;whiteSpace=wrap;html=1;strokeColor=#050505;strokeWidth=4;fontSize=22;fillColor=#f5f5f5;fontColor=#333333;" parent="1" vertex="1">
                    <mxGeometry x="250" y="428" width="80" height="80" as="geometry"/>
                </mxCell>
                <mxCell id="5" value="" style="endArrow=none;html=1;strokeColor=#050505;fontSize=22;strokeWidth=2;exitX=0;exitY=0.5;exitDx=0;exitDy=0;" parent="1" source="3" edge="1">
                    <mxGeometry width="50" height="50" relative="1" as="geometry">
                        <mxPoint x="210" y="508" as="sourcePoint"/>
                        <mxPoint x="220" y="468" as="targetPoint"/>
                    </mxGeometry>
                </mxCell>
                <mxCell id="12" value="" style="edgeStyle=none;html=1;strokeColor=#050505;strokeWidth=2;fontSize=11;" parent="1" source="8" target="11" edge="1">
                    <mxGeometry relative="1" as="geometry"/>
                </mxCell>
                <mxCell id="14" value="" style="edgeStyle=none;html=1;strokeColor=#050505;strokeWidth=2;fontSize=11;" parent="1" source="8" target="13" edge="1">
                    <mxGeometry relative="1" as="geometry"/>
                </mxCell>
                <mxCell id="16" value="" style="edgeStyle=none;html=1;strokeColor=#050505;strokeWidth=2;fontSize=11;" parent="1" source="8" target="15" edge="1">
                    <mxGeometry relative="1" as="geometry"/>
                </mxCell>
                <mxCell id="8" value="&lt;b&gt;&lt;font style=&quot;font-size: 22px;&quot;&gt;USER&lt;/font&gt;&lt;/b&gt;" style="rounded=0;whiteSpace=wrap;html=1;fillColor=#f5f5f5;fontColor=#333333;strokeColor=#050505;strokeWidth=4;" parent="1" vertex="1">
                    <mxGeometry x="90" y="438" width="120" height="60" as="geometry"/>
                </mxCell>
                <mxCell id="10" value="" style="endArrow=none;html=1;strokeColor=#050505;strokeWidth=2;fontSize=11;exitX=1;exitY=0.5;exitDx=0;exitDy=0;" parent="1" source="8" edge="1">
                    <mxGeometry width="50" height="50" relative="1" as="geometry">
                        <mxPoint x="170" y="518" as="sourcePoint"/>
                        <mxPoint x="220" y="468" as="targetPoint"/>
                    </mxGeometry>
                </mxCell>
                <mxCell id="11" value="&lt;font style=&quot;font-size: 8px;&quot;&gt;PASSWORD&lt;/font&gt;" style="ellipse;whiteSpace=wrap;html=1;fillColor=#f5f5f5;strokeColor=#050505;fontColor=#333333;rounded=0;strokeWidth=4;" parent="1" vertex="1">
                    <mxGeometry x="180" y="318" width="60" height="50" as="geometry"/>
                </mxCell>
                <mxCell id="13" value="&lt;font style=&quot;font-size: 10px;&quot;&gt;USERNAME&lt;/font&gt;" style="ellipse;whiteSpace=wrap;html=1;fillColor=#f5f5f5;strokeColor=#050505;fontColor=#333333;rounded=0;strokeWidth=4;" parent="1" vertex="1">
                    <mxGeometry x="80" y="318" width="70" height="50" as="geometry"/>
                </mxCell>
                <mxCell id="15" value="&lt;font style=&quot;font-size: 15px;&quot;&gt;EMAIL&lt;/font&gt;" style="ellipse;whiteSpace=wrap;html=1;fillColor=#f5f5f5;strokeColor=#050505;fontColor=#333333;rounded=0;strokeWidth=4;" parent="1" vertex="1">
                    <mxGeometry x="10" y="348" width="70" height="50" as="geometry"/>
                </mxCell>
                <mxCell id="19" value="&lt;b&gt;&lt;font style=&quot;font-size: 22px;&quot;&gt;N&lt;/font&gt;&lt;/b&gt;" style="rounded=0;whiteSpace=wrap;html=1;fillColor=none;fontColor=#333333;strokeColor=none;strokeWidth=4;" parent="1" vertex="1">
                    <mxGeometry x="170" y="428" width="120" height="60" as="geometry"/>
                </mxCell>
                <mxCell id="23" value="" style="edgeStyle=none;html=1;strokeColor=#050505;strokeWidth=2;fontSize=9;shape=link;" parent="1" source="20" target="22" edge="1">
                    <mxGeometry relative="1" as="geometry"/>
                </mxCell>
                <mxCell id="20" value="&lt;font style=&quot;font-size: 9px;&quot;&gt;CAN ADD TO&lt;/font&gt;" style="rhombus;whiteSpace=wrap;html=1;fillColor=#f5f5f5;strokeColor=#050505;fontColor=#333333;rounded=0;strokeWidth=4;" parent="1" vertex="1">
                    <mxGeometry x="395" y="318" width="80" height="80" as="geometry"/>
                </mxCell>
                <mxCell id="22" value="FAVORITES" style="whiteSpace=wrap;html=1;fillColor=#f5f5f5;strokeColor=#050505;fontColor=#333333;rounded=0;strokeWidth=4;" parent="1" vertex="1">
                    <mxGeometry x="375" y="228" width="120" height="60" as="geometry"/>
                </mxCell>
                <mxCell id="24" value="&lt;font style=&quot;font-size: 11px;&quot;&gt;DATE ADDED&lt;/font&gt;" style="ellipse;whiteSpace=wrap;html=1;fillColor=#f5f5f5;strokeColor=#050505;fontColor=#333333;rounded=0;strokeWidth=4;" parent="1" vertex="1">
                    <mxGeometry x="395" y="128" width="80" height="80" as="geometry"/>
                </mxCell>
                <mxCell id="26" value="&lt;b style=&quot;&quot;&gt;&lt;font style=&quot;font-size: 11px;&quot;&gt;I&lt;/font&gt;&lt;/b&gt;" style="rounded=0;whiteSpace=wrap;html=1;fillColor=none;fontColor=#333333;strokeColor=none;strokeWidth=4;" parent="1" vertex="1">
                    <mxGeometry x="420" y="288" width="60" height="30" as="geometry"/>
                </mxCell>
                <mxCell id="27" value="&lt;b style=&quot;&quot;&gt;&lt;font style=&quot;font-size: 11px;&quot;&gt;I&lt;/font&gt;&lt;/b&gt;" style="rounded=0;whiteSpace=wrap;html=1;fillColor=none;fontColor=#333333;strokeColor=none;strokeWidth=4;" parent="1" vertex="1">
                    <mxGeometry x="420" y="408" width="60" height="30" as="geometry"/>
                </mxCell>
                <mxCell id="29" value="MANAGE" style="rhombus;whiteSpace=wrap;html=1;fillColor=#f5f5f5;strokeColor=#050505;fontColor=#333333;rounded=0;strokeWidth=4;" parent="1" vertex="1">
                    <mxGeometry x="140" y="748" width="80" height="80" as="geometry"/>
                </mxCell>
                <mxCell id="31" value="&lt;font style=&quot;font-size: 11px;&quot;&gt;SELECTS&lt;/font&gt;" style="rhombus;whiteSpace=wrap;html=1;fillColor=#f5f5f5;strokeColor=#050505;fontColor=#333333;rounded=0;strokeWidth=4;fontSize=15;" parent="1" vertex="1">
                    <mxGeometry x="495" y="638" width="80" height="80" as="geometry"/>
                </mxCell>
                <mxCell id="33" value="" style="endArrow=none;html=1;strokeColor=#050505;strokeWidth=2;fontSize=15;exitX=0;exitY=0.5;exitDx=0;exitDy=0;entryX=0.157;entryY=1.003;entryDx=0;entryDy=0;entryPerimeter=0;" parent="1" source="29" target="8" edge="1">
                    <mxGeometry width="50" height="50" relative="1" as="geometry">
                        <mxPoint x="250" y="808" as="sourcePoint"/>
                        <mxPoint x="300" y="758" as="targetPoint"/>
                        <Array as="points">
                            <mxPoint x="110" y="788"/>
                        </Array>
                    </mxGeometry>
                </mxCell>
                <mxCell id="34" value="" style="endArrow=none;html=1;strokeColor=#050505;strokeWidth=2;fontSize=15;entryX=0.833;entryY=1;entryDx=0;entryDy=0;entryPerimeter=0;exitX=0;exitY=0.5;exitDx=0;exitDy=0;" parent="1" source="31" target="8" edge="1">
                    <mxGeometry width="50" height="50" relative="1" as="geometry">
                        <mxPoint x="250" y="668" as="sourcePoint"/>
                        <mxPoint x="300" y="618" as="targetPoint"/>
                        <Array as="points">
                            <mxPoint x="310" y="678"/>
                            <mxPoint x="190" y="678"/>
                        </Array>
                    </mxGeometry>
                </mxCell>
                <mxCell id="37" value="" style="endArrow=none;html=1;strokeColor=#050505;strokeWidth=2;fontSize=11;exitX=1;exitY=0.5;exitDx=0;exitDy=0;entryX=0;entryY=0.5;entryDx=0;entryDy=0;" parent="1" source="29" target="38" edge="1">
                    <mxGeometry width="50" height="50" relative="1" as="geometry">
                        <mxPoint x="300" y="848" as="sourcePoint"/>
                        <mxPoint x="250" y="788" as="targetPoint"/>
                    </mxGeometry>
                </mxCell>
                <mxCell id="38" value="&lt;b&gt;&lt;font style=&quot;font-size: 15px;&quot;&gt;PROFILE&lt;/font&gt;&lt;/b&gt;" style="rounded=0;whiteSpace=wrap;html=1;fillColor=#f5f5f5;fontColor=#333333;strokeColor=#050505;strokeWidth=4;" parent="1" vertex="1">
                    <mxGeometry x="250" y="763" width="100" height="50" as="geometry"/>
                </mxCell>
                <mxCell id="39" value="&lt;font style=&quot;font-size: 8px;&quot;&gt;FOLLOWING&lt;/font&gt;" style="ellipse;whiteSpace=wrap;html=1;fillColor=#f5f5f5;strokeColor=#050505;fontColor=#333333;rounded=0;strokeWidth=4;" parent="1" vertex="1">
                    <mxGeometry x="230" y="698" width="70" height="50" as="geometry"/>
                </mxCell>
                <mxCell id="40" value="" style="endArrow=none;html=1;strokeColor=#050505;strokeWidth=2;fontSize=8;fontColor=#050505;entryX=0.5;entryY=1;entryDx=0;entryDy=0;exitX=0.193;exitY=-0.003;exitDx=0;exitDy=0;exitPerimeter=0;" parent="1" source="38" target="39" edge="1">
                    <mxGeometry width="50" height="50" relative="1" as="geometry">
                        <mxPoint x="150" y="768" as="sourcePoint"/>
                        <mxPoint x="200" y="718" as="targetPoint"/>
                    </mxGeometry>
                </mxCell>
                <mxCell id="41" value="&lt;font style=&quot;font-size: 8px;&quot;&gt;FOLLOWERS&lt;/font&gt;" style="ellipse;whiteSpace=wrap;html=1;fillColor=#f5f5f5;strokeColor=#050505;fontColor=#333333;rounded=0;strokeWidth=4;" parent="1" vertex="1">
                    <mxGeometry x="335" y="698" width="70" height="50" as="geometry"/>
                </mxCell>
                <mxCell id="42" value="" style="endArrow=none;html=1;strokeColor=#050505;strokeWidth=2;fontSize=8;fontColor=#050505;entryX=0.216;entryY=0.962;entryDx=0;entryDy=0;exitX=0.803;exitY=0.009;exitDx=0;exitDy=0;exitPerimeter=0;entryPerimeter=0;" parent="1" source="38" target="41" edge="1">
                    <mxGeometry width="50" height="50" relative="1" as="geometry">
                        <mxPoint x="349.3000000000002" y="762.8499999999999" as="sourcePoint"/>
                        <mxPoint x="280" y="718" as="targetPoint"/>
                    </mxGeometry>
                </mxCell>
                <mxCell id="43" value="&lt;b style=&quot;&quot;&gt;&lt;font style=&quot;font-size: 11px;&quot;&gt;I&lt;/font&gt;&lt;/b&gt;" style="rounded=0;whiteSpace=wrap;html=1;fillColor=none;fontColor=#333333;strokeColor=none;strokeWidth=4;" parent="1" vertex="1">
                    <mxGeometry x="335" y="443" width="60" height="30" as="geometry"/>
                </mxCell>
                <mxCell id="44" value="&lt;span style=&quot;font-size: 11px;&quot;&gt;&lt;b&gt;SA&lt;/b&gt;&lt;/span&gt;" style="rounded=0;whiteSpace=wrap;html=1;fillColor=none;fontColor=#333333;strokeColor=none;strokeWidth=4;" parent="1" vertex="1">
                    <mxGeometry x="190" y="688" width="60" height="30" as="geometry"/>
                </mxCell>
                <mxCell id="45" value="&lt;span style=&quot;font-size: 11px;&quot;&gt;&lt;b&gt;SA&lt;/b&gt;&lt;/span&gt;" style="rounded=0;whiteSpace=wrap;html=1;fillColor=none;fontColor=#333333;strokeColor=none;strokeWidth=4;" parent="1" vertex="1">
                    <mxGeometry x="300" y="678" width="60" height="30" as="geometry"/>
                </mxCell>
                <mxCell id="46" value="&lt;span style=&quot;font-size: 8px;&quot;&gt;PROFILE PICTURE&lt;/span&gt;" style="ellipse;whiteSpace=wrap;html=1;fillColor=#f5f5f5;strokeColor=#050505;fontColor=#333333;rounded=0;strokeWidth=4;" parent="1" vertex="1">
                    <mxGeometry x="375" y="747.55" width="70" height="50" as="geometry"/>
                </mxCell>
                <mxCell id="47" value="" style="endArrow=none;html=1;strokeColor=#050505;strokeWidth=2;fontSize=8;fontColor=#050505;entryX=0;entryY=1;entryDx=0;entryDy=0;exitX=1;exitY=0.5;exitDx=0;exitDy=0;" parent="1" source="38" target="46" edge="1">
                    <mxGeometry width="50" height="50" relative="1" as="geometry">
                        <mxPoint x="370.2999999999997" y="813" as="sourcePoint"/>
                        <mxPoint x="320" y="767.55" as="targetPoint"/>
                    </mxGeometry>
                </mxCell>
                <mxCell id="48" value="&lt;span style=&quot;font-size: 11px;&quot;&gt;&lt;b&gt;SVA&lt;/b&gt;&lt;/span&gt;" style="rounded=0;whiteSpace=wrap;html=1;fillColor=none;fontColor=#333333;strokeColor=none;strokeWidth=4;" parent="1" vertex="1">
                    <mxGeometry x="420" y="733" width="60" height="30" as="geometry"/>
                </mxCell>
                <mxCell id="49" value="&lt;span style=&quot;font-size: 8px;&quot;&gt;POSTS&lt;/span&gt;" style="ellipse;whiteSpace=wrap;html=1;fillColor=#f5f5f5;strokeColor=#050505;fontColor=#333333;rounded=0;strokeWidth=4;" parent="1" vertex="1">
                    <mxGeometry x="340" y="842.55" width="70" height="50" as="geometry"/>
                </mxCell>
                <mxCell id="50" value="" style="endArrow=none;html=1;strokeColor=#050505;strokeWidth=2;fontSize=8;fontColor=#050505;exitX=0.5;exitY=1;exitDx=0;exitDy=0;" parent="1" source="38" target="49" edge="1">
                    <mxGeometry width="50" height="50" relative="1" as="geometry">
                        <mxPoint x="315" y="883" as="sourcePoint"/>
                        <mxPoint x="285" y="862.55" as="targetPoint"/>
                    </mxGeometry>
                </mxCell>
                <mxCell id="51" value="&lt;span style=&quot;font-size: 11px;&quot;&gt;&lt;b&gt;CA&lt;/b&gt;&lt;/span&gt;" style="rounded=0;whiteSpace=wrap;html=1;fillColor=none;fontColor=#333333;strokeColor=none;strokeWidth=4;" parent="1" vertex="1">
                    <mxGeometry x="385" y="828" width="60" height="30" as="geometry"/>
                </mxCell>
                <mxCell id="52" value="&lt;b&gt;&lt;font style=&quot;font-size: 22px;&quot;&gt;M&lt;/font&gt;&lt;/b&gt;" style="rounded=0;whiteSpace=wrap;html=1;fillColor=none;fontColor=#333333;strokeColor=none;strokeWidth=4;" parent="1" vertex="1">
                    <mxGeometry x="150" y="576.2" width="120" height="60" as="geometry"/>
                </mxCell>
                <mxCell id="53" value="&lt;b&gt;&lt;font style=&quot;font-size: 22px;&quot;&gt;N&lt;/font&gt;&lt;/b&gt;" style="rounded=0;whiteSpace=wrap;html=1;fillColor=none;fontColor=#333333;strokeColor=none;strokeWidth=4;" parent="1" vertex="1">
                    <mxGeometry x="170" y="742.55" width="120" height="60" as="geometry"/>
                </mxCell>
                <mxCell id="54" value="CATEGORY" style="whiteSpace=wrap;html=1;fontSize=15;fillColor=#f5f5f5;strokeColor=#050505;fontColor=#333333;rounded=0;strokeWidth=4;" parent="1" vertex="1">
                    <mxGeometry x="475" y="808" width="120" height="60" as="geometry"/>
                </mxCell>
                <mxCell id="56" value="&lt;span style=&quot;font-size: 8px;&quot;&gt;ABSTRACT&lt;/span&gt;" style="ellipse;whiteSpace=wrap;html=1;fillColor=#f5f5f5;strokeColor=#050505;fontColor=#333333;rounded=0;strokeWidth=4;" parent="1" vertex="1">
                    <mxGeometry x="610" y="752.55" width="70" height="50" as="geometry"/>
                </mxCell>
                <mxCell id="57" value="" style="endArrow=none;html=1;strokeColor=#050505;strokeWidth=2;fontSize=8;fontColor=#050505;exitX=0.879;exitY=0.007;exitDx=0;exitDy=0;exitPerimeter=0;" parent="1" source="54" target="56" edge="1">
                    <mxGeometry width="50" height="50" relative="1" as="geometry">
                        <mxPoint x="570" y="723.0000000000002" as="sourcePoint"/>
                        <mxPoint x="555" y="772.55" as="targetPoint"/>
                    </mxGeometry>
                </mxCell>
                <mxCell id="58" value="&lt;span style=&quot;font-size: 11px;&quot;&gt;&lt;b&gt;SA&lt;/b&gt;&lt;/span&gt;" style="rounded=0;whiteSpace=wrap;html=1;fillColor=none;fontColor=#333333;strokeColor=none;strokeWidth=4;" parent="1" vertex="1">
                    <mxGeometry x="655" y="738" width="60" height="30" as="geometry"/>
                </mxCell>
                <mxCell id="59" value="&lt;span style=&quot;font-size: 8px;&quot;&gt;WATET COLOR&lt;/span&gt;" style="ellipse;whiteSpace=wrap;html=1;fillColor=#f5f5f5;strokeColor=#050505;fontColor=#333333;rounded=0;strokeWidth=4;" parent="1" vertex="1">
                    <mxGeometry x="647.26" y="802.13" width="70" height="50" as="geometry"/>
                </mxCell>
                <mxCell id="60" value="" style="endArrow=none;html=1;strokeColor=#050505;strokeWidth=2;fontSize=8;fontColor=#050505;exitX=1;exitY=0.5;exitDx=0;exitDy=0;" parent="1" source="54" target="59" edge="1">
                    <mxGeometry width="50" height="50" relative="1" as="geometry">
                        <mxPoint x="617.74" y="858.0000000000001" as="sourcePoint"/>
                        <mxPoint x="592.26" y="822.13" as="targetPoint"/>
                    </mxGeometry>
                </mxCell>
                <mxCell id="61" value="&lt;span style=&quot;font-size: 11px;&quot;&gt;&lt;b&gt;SA&lt;/b&gt;&lt;/span&gt;" style="rounded=0;whiteSpace=wrap;html=1;fillColor=none;fontColor=#333333;strokeColor=none;strokeWidth=4;" parent="1" vertex="1">
                    <mxGeometry x="692.26" y="787.58" width="60" height="30" as="geometry"/>
                </mxCell>
                <mxCell id="62" value="&lt;span style=&quot;font-size: 8px;&quot;&gt;GRAFFITI&lt;/span&gt;" style="ellipse;whiteSpace=wrap;html=1;fillColor=#f5f5f5;strokeColor=#050505;fontColor=#333333;rounded=0;strokeWidth=4;" parent="1" vertex="1">
                    <mxGeometry x="647.26" y="872.55" width="70" height="50" as="geometry"/>
                </mxCell>
                <mxCell id="63" value="" style="endArrow=none;html=1;strokeColor=#050505;strokeWidth=2;fontSize=8;fontColor=#050505;exitX=1;exitY=1;exitDx=0;exitDy=0;" parent="1" source="54" target="62" edge="1">
                    <mxGeometry width="50" height="50" relative="1" as="geometry">
                        <mxPoint x="595" y="908.42" as="sourcePoint"/>
                        <mxPoint x="592.26" y="892.55" as="targetPoint"/>
                    </mxGeometry>
                </mxCell>
                <mxCell id="64" value="&lt;span style=&quot;font-size: 11px;&quot;&gt;&lt;b&gt;SA&lt;/b&gt;&lt;/span&gt;" style="rounded=0;whiteSpace=wrap;html=1;fillColor=none;fontColor=#333333;strokeColor=none;strokeWidth=4;" parent="1" vertex="1">
                    <mxGeometry x="692.26" y="858" width="60" height="30" as="geometry"/>
                </mxCell>
                <mxCell id="65" value="&lt;span style=&quot;font-size: 8px;&quot;&gt;POP ART&lt;/span&gt;" style="ellipse;whiteSpace=wrap;html=1;fillColor=#f5f5f5;strokeColor=#050505;fontColor=#333333;rounded=0;strokeWidth=4;" parent="1" vertex="1">
                    <mxGeometry x="572.26" y="922.55" width="70" height="50" as="geometry"/>
                </mxCell>
                <mxCell id="66" value="" style="endArrow=none;html=1;strokeColor=#050505;strokeWidth=2;fontSize=8;fontColor=#050505;exitX=0.5;exitY=1;exitDx=0;exitDy=0;" parent="1" source="54" target="65" edge="1">
                    <mxGeometry width="50" height="50" relative="1" as="geometry">
                        <mxPoint x="520" y="918" as="sourcePoint"/>
                        <mxPoint x="517.26" y="942.55" as="targetPoint"/>
                    </mxGeometry>
                </mxCell>
                <mxCell id="67" value="&lt;span style=&quot;font-size: 11px;&quot;&gt;&lt;b&gt;SA&lt;/b&gt;&lt;/span&gt;" style="rounded=0;whiteSpace=wrap;html=1;fillColor=none;fontColor=#333333;strokeColor=none;strokeWidth=4;" parent="1" vertex="1">
                    <mxGeometry x="617.26" y="908" width="60" height="30" as="geometry"/>
                </mxCell>
                <mxCell id="68" value="" style="endArrow=none;html=1;strokeColor=#050505;strokeWidth=2;fontSize=8;fontColor=#050505;exitX=0.5;exitY=1;exitDx=0;exitDy=0;entryX=0.5;entryY=0;entryDx=0;entryDy=0;" parent="1" source="31" target="54" edge="1">
                    <mxGeometry width="50" height="50" relative="1" as="geometry">
                        <mxPoint x="521.8199999999999" y="728.99" as="sourcePoint"/>
                        <mxPoint x="575.0037521585524" y="787.5796782976684" as="targetPoint"/>
                    </mxGeometry>
                </mxCell>
                <mxCell id="69" value="&lt;b&gt;&lt;font style=&quot;font-size: 22px;&quot;&gt;N&lt;/font&gt;&lt;/b&gt;" style="rounded=0;whiteSpace=wrap;html=1;fillColor=none;fontColor=#333333;strokeColor=none;strokeWidth=4;" parent="1" vertex="1">
                    <mxGeometry x="490" y="723" width="120" height="60" as="geometry"/>
                </mxCell>
                <mxCell id="74" value="" style="edgeStyle=none;shape=link;html=1;strokeColor=#050505;strokeWidth=2;fontSize=8;fontColor=#050505;" parent="1" source="70" target="73" edge="1">
                    <mxGeometry relative="1" as="geometry">
                        <Array as="points">
                            <mxPoint x="713.51" y="468"/>
                        </Array>
                    </mxGeometry>
                </mxCell>
                <mxCell id="70" value="CONTAINS" style="rhombus;whiteSpace=wrap;html=1;fillColor=#f5f5f5;strokeColor=#050505;fontColor=#333333;rounded=0;strokeWidth=4;" parent="1" vertex="1">
                    <mxGeometry x="533.51" y="428" width="80" height="80" as="geometry"/>
                </mxCell>
                <mxCell id="73" value="&lt;font style=&quot;font-size: 13px;&quot;&gt;INTERACTION&lt;/font&gt;" style="whiteSpace=wrap;html=1;fillColor=#f5f5f5;strokeColor=#050505;fontColor=#333333;rounded=0;strokeWidth=4;fontSize=8;" parent="1" vertex="1">
                    <mxGeometry x="653.51" y="538" width="120" height="60" as="geometry"/>
                </mxCell>
                <mxCell id="75" value="&lt;span style=&quot;font-size: 8px;&quot;&gt;DELETE&lt;/span&gt;" style="ellipse;whiteSpace=wrap;html=1;fillColor=#f5f5f5;strokeColor=#050505;fontColor=#333333;rounded=0;strokeWidth=4;" parent="1" vertex="1">
                    <mxGeometry x="563.03" y="552.55" width="70" height="50" as="geometry"/>
                </mxCell>
                <mxCell id="76" value="" style="endArrow=none;html=1;strokeColor=#050505;strokeWidth=2;fontSize=8;fontColor=#050505;exitX=0;exitY=0.587;exitDx=0;exitDy=0;exitPerimeter=0;" parent="1" source="73" target="75" edge="1">
                    <mxGeometry width="50" height="50" relative="1" as="geometry">
                        <mxPoint x="648.51" y="578" as="sourcePoint"/>
                        <mxPoint x="508.03" y="572.55" as="targetPoint"/>
                    </mxGeometry>
                </mxCell>
                <mxCell id="77" value="&lt;span style=&quot;font-size: 11px;&quot;&gt;&lt;b&gt;SA&lt;/b&gt;&lt;/span&gt;" style="rounded=0;whiteSpace=wrap;html=1;fillColor=none;fontColor=#333333;strokeColor=none;strokeWidth=4;" parent="1" vertex="1">
                    <mxGeometry x="608.03" y="538" width="60" height="30" as="geometry"/>
                </mxCell>
                <mxCell id="78" value="&lt;span style=&quot;font-size: 8px;&quot;&gt;FAVORITE&lt;/span&gt;" style="ellipse;whiteSpace=wrap;html=1;fillColor=#f5f5f5;strokeColor=#050505;fontColor=#333333;rounded=0;strokeWidth=4;" parent="1" vertex="1">
                    <mxGeometry x="580.77" y="610.28" width="70" height="50" as="geometry"/>
                </mxCell>
                <mxCell id="79" value="" style="endArrow=none;html=1;strokeColor=#050505;strokeWidth=2;fontSize=8;fontColor=#050505;exitX=0.092;exitY=1.003;exitDx=0;exitDy=0;exitPerimeter=0;" parent="1" source="73" target="78" edge="1">
                    <mxGeometry width="50" height="50" relative="1" as="geometry">
                        <mxPoint x="671.25" y="630.95" as="sourcePoint"/>
                        <mxPoint x="525.77" y="630.28" as="targetPoint"/>
                    </mxGeometry>
                </mxCell>
                <mxCell id="80" value="&lt;span style=&quot;font-size: 11px;&quot;&gt;&lt;b&gt;SA&lt;/b&gt;&lt;/span&gt;" style="rounded=0;whiteSpace=wrap;html=1;fillColor=none;fontColor=#333333;strokeColor=none;strokeWidth=4;" parent="1" vertex="1">
                    <mxGeometry x="533.51" y="608" width="60" height="30" as="geometry"/>
                </mxCell>
                <mxCell id="81" value="&lt;span style=&quot;font-size: 8px;&quot;&gt;FAVORITES&lt;/span&gt;" style="ellipse;whiteSpace=wrap;html=1;fillColor=#f5f5f5;strokeColor=#050505;fontColor=#333333;rounded=0;strokeWidth=4;" parent="1" vertex="1">
                    <mxGeometry x="655.29" y="638" width="70" height="50" as="geometry"/>
                </mxCell>
                <mxCell id="82" value="" style="endArrow=none;html=1;strokeColor=#050505;strokeWidth=2;fontSize=8;fontColor=#050505;exitX=0.5;exitY=1;exitDx=0;exitDy=0;" parent="1" source="73" target="81" edge="1">
                    <mxGeometry width="50" height="50" relative="1" as="geometry">
                        <mxPoint x="739.0699999999999" y="625.9" as="sourcePoint"/>
                        <mxPoint x="600.29" y="658" as="targetPoint"/>
                    </mxGeometry>
                </mxCell>
                <mxCell id="83" value="&lt;span style=&quot;font-size: 11px;&quot;&gt;&lt;b&gt;SA&lt;/b&gt;&lt;/span&gt;" style="rounded=0;whiteSpace=wrap;html=1;fillColor=none;fontColor=#333333;strokeColor=none;strokeWidth=4;" parent="1" vertex="1">
                    <mxGeometry x="608.03" y="668" width="60" height="30" as="geometry"/>
                </mxCell>
                <mxCell id="84" value="&lt;span style=&quot;font-size: 8px;&quot;&gt;COMMENT&lt;/span&gt;" style="ellipse;whiteSpace=wrap;html=1;fillColor=#f5f5f5;strokeColor=#050505;fontColor=#333333;rounded=0;strokeWidth=4;" parent="1" vertex="1">
                    <mxGeometry x="738.03" y="628" width="70" height="50" as="geometry"/>
                </mxCell>
                <mxCell id="85" value="" style="endArrow=none;html=1;strokeColor=#050505;strokeWidth=2;fontSize=8;fontColor=#050505;exitX=0.773;exitY=1.03;exitDx=0;exitDy=0;exitPerimeter=0;" parent="1" source="73" target="84" edge="1">
                    <mxGeometry width="50" height="50" relative="1" as="geometry">
                        <mxPoint x="796.25" y="588" as="sourcePoint"/>
                        <mxPoint x="683.03" y="648" as="targetPoint"/>
                    </mxGeometry>
                </mxCell>
                <mxCell id="86" value="&lt;span style=&quot;font-size: 11px;&quot;&gt;&lt;b&gt;SA&lt;/b&gt;&lt;/span&gt;" style="rounded=0;whiteSpace=wrap;html=1;fillColor=none;fontColor=#333333;strokeColor=none;strokeWidth=4;" parent="1" vertex="1">
                    <mxGeometry x="713.51" y="668" width="60" height="30" as="geometry"/>
                </mxCell>
                <mxCell id="87" value="&lt;span style=&quot;font-size: 8px;&quot;&gt;LIKE&lt;/span&gt;" style="ellipse;whiteSpace=wrap;html=1;fillColor=#f5f5f5;strokeColor=#050505;fontColor=#333333;rounded=0;strokeWidth=4;" parent="1" vertex="1">
                    <mxGeometry x="773.51" y="578" width="70" height="50" as="geometry"/>
                </mxCell>
                <mxCell id="88" value="" style="endArrow=none;html=1;strokeColor=#050505;strokeWidth=2;fontSize=8;fontColor=#050505;exitX=1.007;exitY=0.72;exitDx=0;exitDy=0;exitPerimeter=0;" parent="1" source="73" target="87" edge="1">
                    <mxGeometry width="50" height="50" relative="1" as="geometry">
                        <mxPoint x="806.27" y="548.0000000000001" as="sourcePoint"/>
                        <mxPoint x="743.03" y="596.2" as="targetPoint"/>
                    </mxGeometry>
                </mxCell>
                <mxCell id="89" value="&lt;span style=&quot;font-size: 11px;&quot;&gt;&lt;b&gt;SA&lt;/b&gt;&lt;/span&gt;" style="rounded=0;whiteSpace=wrap;html=1;fillColor=none;fontColor=#333333;strokeColor=none;strokeWidth=4;" parent="1" vertex="1">
                    <mxGeometry x="778.51" y="546.2" width="60" height="30" as="geometry"/>
                </mxCell>
                <mxCell id="90" value="&lt;b style=&quot;&quot;&gt;&lt;font style=&quot;font-size: 11px;&quot;&gt;I&lt;/font&gt;&lt;/b&gt;" style="rounded=0;whiteSpace=wrap;html=1;fillColor=none;fontColor=#333333;strokeColor=none;strokeWidth=4;" parent="1" vertex="1">
                    <mxGeometry x="698.51" y="508" width="60" height="30" as="geometry"/>
                </mxCell>
                <mxCell id="91" value="&lt;b&gt;&lt;font style=&quot;font-size: 22px;&quot;&gt;N&lt;/font&gt;&lt;/b&gt;" style="rounded=0;whiteSpace=wrap;html=1;fillColor=none;fontColor=#333333;strokeColor=none;strokeWidth=4;" parent="1" vertex="1">
                    <mxGeometry x="460.77" y="428" width="120" height="55" as="geometry"/>
                </mxCell>
                <mxCell id="93" value="&lt;b&gt;&lt;font style=&quot;font-size: 22px;&quot;&gt;M&lt;/font&gt;&lt;/b&gt;" style="rounded=0;whiteSpace=wrap;html=1;fillColor=none;fontColor=#333333;strokeColor=none;strokeWidth=4;" parent="1" vertex="1">
                    <mxGeometry x="70" y="608" width="120" height="60" as="geometry"/>
                </mxCell>
                <mxCell id="94" value="&lt;span style=&quot;font-size: 8px;&quot;&gt;TITLE&lt;/span&gt;" style="ellipse;whiteSpace=wrap;html=1;fillColor=#f5f5f5;strokeColor=#050505;fontColor=#333333;rounded=0;strokeWidth=4;" vertex="1" parent="1">
                    <mxGeometry x="325" y="538.54" width="70" height="50" as="geometry"/>
                </mxCell>
                <mxCell id="95" value="" style="endArrow=none;html=1;strokeColor=#050505;strokeWidth=2;fontSize=8;fontColor=#050505;entryX=0.5;entryY=0;entryDx=0;entryDy=0;exitX=0.078;exitY=0.986;exitDx=0;exitDy=0;exitPerimeter=0;" edge="1" parent="1" target="94" source="2">
                    <mxGeometry width="50" height="50" relative="1" as="geometry">
                        <mxPoint x="384.68000000000006" y="508.00000000000006" as="sourcePoint"/>
                        <mxPoint x="270" y="558.54" as="targetPoint"/>
                    </mxGeometry>
                </mxCell>
                <mxCell id="96" value="&lt;span style=&quot;font-size: 11px;&quot;&gt;&lt;b&gt;SVA&lt;/b&gt;&lt;/span&gt;" style="rounded=0;whiteSpace=wrap;html=1;fillColor=none;fontColor=#333333;strokeColor=none;strokeWidth=4;" vertex="1" parent="1">
                    <mxGeometry x="290" y="518.54" width="60" height="30" as="geometry"/>
                </mxCell>
                <mxCell id="97" value="&lt;span style=&quot;font-size: 8px;&quot;&gt;DESCRIPTION&lt;/span&gt;" style="ellipse;whiteSpace=wrap;html=1;fillColor=#f5f5f5;strokeColor=#050505;fontColor=#333333;rounded=0;strokeWidth=4;" vertex="1" parent="1">
                    <mxGeometry x="395" y="573.24" width="70" height="50" as="geometry"/>
                </mxCell>
                <mxCell id="98" value="" style="endArrow=none;html=1;strokeColor=#050505;strokeWidth=2;fontSize=8;fontColor=#050505;entryX=0.5;entryY=0;entryDx=0;entryDy=0;exitX=0.5;exitY=1;exitDx=0;exitDy=0;" edge="1" parent="1" target="97" source="2">
                    <mxGeometry width="50" height="50" relative="1" as="geometry">
                        <mxPoint x="454.36" y="531.86" as="sourcePoint"/>
                        <mxPoint x="340" y="593.24" as="targetPoint"/>
                    </mxGeometry>
                </mxCell>
                <mxCell id="99" value="&lt;span style=&quot;font-size: 11px;&quot;&gt;&lt;b&gt;SVA&lt;/b&gt;&lt;/span&gt;" style="rounded=0;whiteSpace=wrap;html=1;fillColor=none;fontColor=#333333;strokeColor=none;strokeWidth=4;" vertex="1" parent="1">
                    <mxGeometry x="360" y="608" width="60" height="30" as="geometry"/>
                </mxCell>
                <mxCell id="100" value="&lt;span style=&quot;font-size: 8px;&quot;&gt;CATEGORY&lt;/span&gt;" style="ellipse;whiteSpace=wrap;html=1;fillColor=#f5f5f5;strokeColor=#050505;fontColor=#333333;rounded=0;strokeWidth=4;" vertex="1" parent="1">
                    <mxGeometry x="475" y="548.24" width="70" height="50" as="geometry"/>
                </mxCell>
                <mxCell id="101" value="" style="endArrow=none;html=1;strokeColor=#050505;strokeWidth=2;fontSize=8;fontColor=#050505;entryX=0.5;entryY=0;entryDx=0;entryDy=0;exitX=0.884;exitY=1.028;exitDx=0;exitDy=0;exitPerimeter=0;" edge="1" parent="1" target="100" source="2">
                    <mxGeometry width="50" height="50" relative="1" as="geometry">
                        <mxPoint x="515.0000000000001" y="473" as="sourcePoint"/>
                        <mxPoint x="420" y="568.24" as="targetPoint"/>
                    </mxGeometry>
                </mxCell>
                <mxCell id="102" value="&lt;span style=&quot;font-size: 11px;&quot;&gt;&lt;b&gt;SA&lt;/b&gt;&lt;/span&gt;" style="rounded=0;whiteSpace=wrap;html=1;fillColor=none;fontColor=#333333;strokeColor=none;strokeWidth=4;" vertex="1" parent="1">
                    <mxGeometry x="512.26" y="535" width="60" height="30" as="geometry"/>
                </mxCell>
                <mxCell id="103" value="" style="endArrow=none;html=1;entryX=0.012;entryY=0.489;entryDx=0;entryDy=0;entryPerimeter=0;exitX=1.003;exitY=0.481;exitDx=0;exitDy=0;exitPerimeter=0;strokeColor=#050505;" edge="1" parent="1" source="2" target="70">
                    <mxGeometry width="50" height="50" relative="1" as="geometry">
                        <mxPoint x="480" y="500" as="sourcePoint"/>
                        <mxPoint x="530" y="450" as="targetPoint"/>
                    </mxGeometry>
                </mxCell>
                <mxCell id="104" value="&lt;b&gt;&lt;font style=&quot;font-size: 22px;&quot;&gt;KA&lt;/font&gt;&lt;/b&gt;" style="rounded=0;whiteSpace=wrap;html=1;fillColor=none;fontColor=#333333;strokeColor=none;strokeWidth=4;" vertex="1" parent="1">
                    <mxGeometry x="-50" y="308" width="120" height="60" as="geometry"/>
                </mxCell>
                <mxCell id="105" value="&lt;b&gt;&lt;font style=&quot;font-size: 22px;&quot;&gt;KA&lt;/font&gt;&lt;/b&gt;" style="rounded=0;whiteSpace=wrap;html=1;fillColor=none;fontColor=#333333;strokeColor=none;strokeWidth=4;" vertex="1" parent="1">
                    <mxGeometry x="40" y="270" width="120" height="60" as="geometry"/>
                </mxCell>
                <mxCell id="106" value="&lt;b&gt;&lt;font style=&quot;font-size: 22px;&quot;&gt;KA&lt;/font&gt;&lt;/b&gt;" style="rounded=0;whiteSpace=wrap;html=1;fillColor=none;fontColor=#333333;strokeColor=none;strokeWidth=4;" vertex="1" parent="1">
                    <mxGeometry x="170" y="273" width="120" height="60" as="geometry"/>
                </mxCell>
                <mxCell id="107" value="" style="endArrow=none;html=1;strokeColor=#050505;strokeWidth=2;fontSize=8;fontColor=#050505;exitX=0.5;exitY=1.012;exitDx=0;exitDy=0;exitPerimeter=0;" edge="1" parent="1" source="20" target="2">
                    <mxGeometry width="50" height="50" relative="1" as="geometry">
                        <mxPoint x="432.5" y="398" as="sourcePoint"/>
                        <mxPoint x="427.5" y="473.24" as="targetPoint"/>
                    </mxGeometry>
                </mxCell>
                <mxCell id="108" value="" style="endArrow=none;html=1;strokeColor=#050505;strokeWidth=2;fontSize=8;fontColor=#050505;exitX=0.513;exitY=1.013;exitDx=0;exitDy=0;exitPerimeter=0;entryX=0.503;entryY=0.012;entryDx=0;entryDy=0;entryPerimeter=0;" edge="1" parent="1" source="24" target="22">
                    <mxGeometry width="50" height="50" relative="1" as="geometry">
                        <mxPoint x="434.95" y="220.00000000000003" as="sourcePoint"/>
                        <mxPoint x="434.95" y="259.03999999999996" as="targetPoint"/>
                    </mxGeometry>
                </mxCell>
                <mxCell id="109" value="&lt;b&gt;&lt;font style=&quot;font-size: 22px;&quot;&gt;SA&lt;/font&gt;&lt;/b&gt;" style="rounded=0;whiteSpace=wrap;html=1;fillColor=none;fontColor=#333333;strokeColor=none;strokeWidth=4;" vertex="1" parent="1">
                    <mxGeometry x="420" y="90" width="120" height="60" as="geometry"/>
                </mxCell>
            </root>
        </mxGraphModel>
    </diagram>
</mxfile>
